{"title":"Rosewater (2014) 1080p BluRay DTS x264 -BY @Kamalesh","uid":11677426,"size":3408615325,"categoryP":"video","categoryS":"hd___movies","magnet":"?xt=urn:btih:7a5097c164ce30717e3f50ecc7cdbc0d4516852d&amp;dn=Rosewater+%282014%29+1080p+BluRay+DTS+x264+-BY+%40Kamalesh&amp;tr=udp%3A%2F%2Ftracker.openbittorrent.com%3A80&amp;tr=udp%3A%2F%2Fopen.demonii.com%3A1337&amp;tr=udp%3A%2F%2Ftracker.coppersurfer.tk%3A6969&amp;tr=udp%3A%2F%2Fexodus.desync.com%3A6969","seeders":5,"leechers":1,"uploader":"kamalesh","files":2,"time":1422931577,"description":"[center][img]http://i.imgur.com/iw79l5j.jpg[/img]\n\n[b]IMDB : [url]http://www.imdb.com/title/tt2752688/[/url][/b]\n\n[img]http://i.imgur.com/5oJTBSv.png[/img]\n\n[b]General\nComplete name               : Rosewater (2014) 1080p BluRay DTS x264 - Kamalesh.mkv\nFormat                      : Matroska\nFormat version              : Version 4 / Version 2\nFile size                   : 3.11 GiB\nDuration                    : 1h 43mn\nOverall bit rate            : 4 302 Kbps\nEncoded date                : UTC 2015-02-02 22:53:00\nWriting application         : mkvmerge v7.4.0 ('Circles') 32bit built on Dec 12 2014 12:10:09\n\nVideo\nFormat                      : AVC\nFormat/Info                 : Advanced Video Codec\nFormat profile              : &lt;a class=&quot;__cf_email__&quot; href=&quot;/cdn-cgi/l/email-protection&quot; data-cfemail=&quot;bdf5d4dad5fdf189938c&quot;&gt;[email&amp;#160;protected]&lt;/a&gt;&lt;script cf-hash='f9e31' type=&quot;text/javascript&quot;&gt;\n/* &lt;![CDATA[ */!function(){try{var t=&quot;currentScript&quot;in document?document.currentScript:function(){for(var t=document.getElementsByTagName(&quot;script&quot;),e=t.length;e--;)if(t[e].getAttribute(&quot;cf-hash&quot;))return t[e]}();if(t&amp;&amp;t.previousSibling){var e,r,n,i,c=t.previousSibling,a=c.getAttribute(&quot;data-cfemail&quot;);if(a){for(e=&quot;&quot;,r=parseInt(a.substr(0,2),16),n=2;a.length-n;n+=2)i=parseInt(a.substr(n,2),16)^r,e+=String.fromCharCode(i);e=document.createTextNode(e),c.parentNode.replaceChild(e,c)}}}catch(u){}}();/* ]]&gt; */&lt;/script&gt;\nFormat settings, CABAC      : Yes\nFormat settings, ReFrames   : 4 frames\nCodec ID                    : V_MPEG4/ISO/AVC\nDuration                    : 1h 43mn\nBit rate                    : 3 499 Kbps\nWidth                       : 1 920 pixels\nHeight                      : 1 040 pixels\nDisplay aspect ratio        : 1.85:1\nFrame rate mode             : Constant\nFrame rate                  : 23.976 fps\nColor space                 : YUV\nChroma subsampling          : 4:2:0\nBit depth                   : 8 bits\nScan type                   : Progressive\nStream size                 : 2.50 GiB (80%)\nWriting library             : x264 \n\nAudio\nFormat                      : DTS\nFormat/Info                 : Digital Theater Systems\nMode                        : 16\nFormat settings, Endianness : Big\nCodec ID                    : A_DTS\nDuration                    : 1h 43mn\nBit rate mode               : Constant\nBit rate                    : 768 Kbps\nChannel(s)                  : 6 channels\nChannel positions           : Front: L C R, Side: L R, LFE\nSampling rate               : 48.0 KHz\nBit depth                   : 24 bits\nCompression mode            : Lossy\nStream size                 : 569 MiB (18%)\nDefault                     : Yes\nForced                      : No\n\nText #1\nFormat                      : PGS\nMuxing mode                 : zlib\nCodec ID                    : S_HDMV/PGS\nCodec ID/Info               : The same subtitle format used on BDs/HD-DVDs\nLanguage                    : English\nDefault                     : Yes\nForced                      : No\n\nText #2\nFormat                      : PGS\nMuxing mode                 : zlib\nCodec ID                    : S_HDMV/PGS\nCodec ID/Info               : The same subtitle format used on BDs/HD-DVDs\nLanguage                    : Spanish\nDefault                     : No\nForced                      : No\n\nText #3\nFormat                      : PGS\nMuxing mode                 : zlib\nCodec ID                    : S_HDMV/PGS\nCodec ID/Info               : The same subtitle format used on BDs/HD-DVDs\nLanguage                    : French\nDefault                     : No\nForced                      : No[/b]\n\n[img]http://i.imgur.com/wP9F3tc.png[/img]\n\n[URL=http://someimage.com/MK5CTWO][IMG]http://t1.someimage.com/MK5CTWO.jpg[/IMG][/URL] [URL=http://someimage.com/ZH7V8av][IMG]http://t1.someimage.com/ZH7V8av.jpg[/IMG][/URL] [URL=http://someimage.com/dBJsczp][IMG]http://t1.someimage.com/dBJsczp.jpg[/IMG][/URL] [URL=http://someimage.com/fJEgzQn][IMG]http://t1.someimage.com/fJEgzQn.jpg[/IMG][/URL] [URL=http://someimage.com/UvP6H7G][IMG]http://t1.someimage.com/UvP6H7G.jpg[/IMG][/URL] [URL=http://someimage.com/fHOs3zx][IMG]http://t1.someimage.com/fHOs3zx.jpg[/IMG][/URL] [URL=http://someimage.com/Mb49LzR][IMG]http://t1.someimage.com/Mb49LzR.jpg[/IMG][/URL] [URL=http://someimage.com/iTiF3AJ][IMG]http://t1.someimage.com/iTiF3AJ.jpg[/IMG][/URL] [URL=http://someimage.com/2F8iYF6][IMG]http://t1.someimage.com/2F8iYF6.jpg[/IMG][/URL] [URL=http://someimage.com/W9j6bEJ][IMG]http://t1.someimage.com/W9j6bEJ.jpg[/IMG][/URL][/center]","torrent":{"xt":"urn:btih:7a5097c164ce30717e3f50ecc7cdbc0d4516852d","amp;dn":"Rosewater+%282014%29+1080p+BluRay+DTS+x264+-BY+%40Kamalesh","amp;tr":["udp%3A%2F%2Ftracker.openbittorrent.com%3A80","udp%3A%2F%2Fopen.demonii.com%3A1337","udp%3A%2F%2Ftracker.coppersurfer.tk%3A6969","udp%3A%2F%2Fexodus.desync.com%3A6969"],"infoHash":"7a5097c164ce30717e3f50ecc7cdbc0d4516852d","infoHashBuffer":{"type":"Buffer","data":[122,80,151,193,100,206,48,113,126,63,80,236,199,205,188,13,69,22,133,45]},"announce":[],"urlList":[]}}